<svg xmlns="http://www.w3.org/2000/svg" version="1.1" xmlns:xlink="http://www.w3.org/1999/xlink" xmlns:svgjs="http://svgjs.dev/svgjs" width="2000" height="1080" viewBox="0 0 2000 1080"><g transform="matrix(1,0,0,1,-1.2121212121212466,-1.0381094889002043)"><svg viewBox="0 0 396 214" data-background-color="#000000" preserveAspectRatio="xMidYMid meet" height="1080" width="2000" xmlns="http://www.w3.org/2000/svg" xmlns:xlink="http://www.w3.org/1999/xlink"><g id="tight-bounds" transform="matrix(1,0,0,1,0.2400000000000091,0.2056994728006032)"><svg viewBox="0 0 395.52 213.5886010543988" height="213.5886010543988" width="395.52"><g><svg viewBox="0 0 457.7610580215297 247.20000000000002" height="213.5886010543988" width="395.52"><g><svg viewBox="0 0 246.84985835694047 247.20000000000002" height="247.20000000000002" width="246.84985835694047"><g id="textblocktransform"><svg viewBox="0 0 246.84985835694047 247.20000000000002" height="247.20000000000002" width="246.84985835694047" id="textblock"><g><svg viewBox="0 0 246.84985835694047 247.20000000000002" height="247.20000000000002" width="246.84985835694047"><g transform="matrix(1,0,0,1,0,0)"><svg width="246.84985835694047" viewBox="3.825 -35.05 35.24999999999999 35.3" height="247.20000000000002" data-palette-color="url(#49d818d3-c981-4907-985c-0e4fa9715d6c)"></svg></g></svg></g></svg></g></svg></g><g transform="matrix(1,0,0,1,305.20784555694047,47.3233937677054)"><svg viewBox="0 0 152.55321246458922 152.55321246458922" height="152.55321246458922" width="152.55321246458922"><g data-palette-color="url(#141f8780-e7f8-4aa3-8c1c-8953fed1eaec)"></g></svg></g></svg></g><defs></defs><mask id="d32bc455-4b99-4077-86b3-08d238ff874c"><g id="SvgjsG3378"><svg viewBox="0 0 395.52 213.5886010543988" height="213.5886010543988" width="395.52"><g><svg viewBox="0 0 457.7610580215297 247.20000000000002" height="213.5886010543988" width="395.52"><g><svg viewBox="0 0 246.84985835694047 247.20000000000002" height="247.20000000000002" width="246.84985835694047"><g id="SvgjsG3377"><svg viewBox="0 0 246.84985835694047 247.20000000000002" height="247.20000000000002" width="246.84985835694047" id="SvgjsSvg3376"><g><svg viewBox="0 0 246.84985835694047 247.20000000000002" height="247.20000000000002" width="246.84985835694047"><g transform="matrix(1,0,0,1,0,0)"><svg width="246.84985835694047" viewBox="3.825 -35.05 35.24999999999999 35.3" height="247.20000000000002" data-palette-color="url(#49d818d3-c981-4907-985c-0e4fa9715d6c)"><path d="M33.35 0.25L33.35 0.25 9.6-30.5 9.6-5.2Q9.6-3.8 9.68-3.08 9.75-2.35 10.1-1.95L10.1-1.95Q10.5-1.6 11.25-1.33 12-1.05 13.4-0.95L13.4-0.95Q13.45-0.45 13.4 0.05L13.4 0.05Q12.3 0.05 10.98 0 9.65-0.05 8.75-0.05L8.75-0.05Q7.85-0.05 6.53 0 5.2 0.05 4.15 0.05L4.15 0.05Q4.1-0.45 4.15-0.95L4.15-0.95Q5.9-1.15 6.65-1.4 7.4-1.65 7.58-2.38 7.75-3.1 7.75-4.75L7.75-4.75 7.75-29.6Q7.75-31.55 7.55-32.43 7.35-33.3 6.53-33.6 5.7-33.9 3.85-34.1L3.85-34.1Q3.8-34.55 3.85-35.05L3.85-35.05Q5-35.05 6.28-35 7.55-34.95 8.8-34.95L8.8-34.95Q8.95-34.95 9.78-34.95 10.6-34.95 11.25-35L11.25-35 33.55-6.05 33.55-29.75Q33.55-31.1 33.5-31.88 33.45-32.65 33.05-33L33.05-33Q32.3-33.85 29.35-34.05L29.35-34.05Q29.3-34.55 29.35-35L29.35-35Q30.4-35 31.95-34.98 33.5-34.95 34.4-34.95L34.4-34.95Q35.3-34.95 36.63-34.98 37.95-35 39.05-35L39.05-35Q39.1-34.55 39.05-34.05L39.05-34.05Q37.3-33.85 36.52-33.58 35.75-33.3 35.58-32.58 35.4-31.85 35.4-30.2L35.4-30.2 35.4 0.05Q35.05 0.15 34.43 0.2 33.8 0.25 33.35 0.25Z" opacity="1" transform="matrix(1,0,0,1,0,0)" fill="white" class="wordmark-text-0" id="SvgjsPath3375"></path></svg></g></svg></g></svg></g></svg></g><g transform="matrix(1,0,0,1,305.20784555694047,47.3233937677054)"><svg viewBox="0 0 152.55321246458922 152.55321246458922" height="152.55321246458922" width="152.55321246458922"><g data-palette-color="url(#141f8780-e7f8-4aa3-8c1c-8953fed1eaec)"><rect width="41.69787807365439" height="152.55321246458922" fill="black" stroke="transparent" x="0" fill-opacity="1"></rect><rect width="41.69787807365439" height="152.55321246458922" fill="black" stroke="transparent" x="50.85107082152974" fill-opacity="0.75"></rect><rect width="41.69787807365439" height="152.55321246458922" fill="black" stroke="transparent" x="101.70214164305948" fill-opacity="0.5"></rect></g></svg></g></svg></g><defs><mask></mask></defs></svg><rect width="395.52" height="213.5886010543988" fill="black" stroke="none" visibility="hidden"></rect></g></mask><linearGradient x1="0" x2="1" y1="0.578" y2="0.595" id="49d818d3-c981-4907-985c-0e4fa9715d6c"><stop stop-color="#6ee2f5" offset="0"></stop><stop stop-color="#6454f0" offset="1"></stop></linearGradient><rect width="395.52" height="213.5886010543988" fill="url(#49d818d3-c981-4907-985c-0e4fa9715d6c)" mask="url(#d32bc455-4b99-4077-86b3-08d238ff874c)" data-fill-palette-color="primary"></rect><mask id="1eb7582e-5c14-4ec3-b6b9-7d2afee1be2c"><g id="SvgjsG3393"><svg viewBox="0 0 395.52 213.5886010543988" height="213.5886010543988" width="395.52"><g><svg viewBox="0 0 457.7610580215297 247.20000000000002" height="213.5886010543988" width="395.52"><g><svg viewBox="0 0 246.84985835694047 247.20000000000002" height="247.20000000000002" width="246.84985835694047"><g id="SvgjsG3392"><svg viewBox="0 0 246.84985835694047 247.20000000000002" height="247.20000000000002" width="246.84985835694047" id="SvgjsSvg3391"><g><svg viewBox="0 0 246.84985835694047 247.20000000000002" height="247.20000000000002" width="246.84985835694047"><g transform="matrix(1,0,0,1,0,0)"><svg width="246.84985835694047" viewBox="3.825 -35.05 35.24999999999999 35.3" height="247.20000000000002" data-palette-color="url(#49d818d3-c981-4907-985c-0e4fa9715d6c)"></svg></g></svg></g></svg></g></svg></g><g transform="matrix(1,0,0,1,305.20784555694047,47.3233937677054)"><svg viewBox="0 0 152.55321246458922 152.55321246458922" height="152.55321246458922" width="152.55321246458922"><g data-palette-color="url(#141f8780-e7f8-4aa3-8c1c-8953fed1eaec)"><rect width="41.69787807365439" height="152.55321246458922" fill="white" stroke="transparent" x="0" fill-opacity="1"></rect><rect width="41.69787807365439" height="152.55321246458922" fill="white" stroke="transparent" x="50.85107082152974" fill-opacity="0.75"></rect><rect width="41.69787807365439" height="152.55321246458922" fill="white" stroke="transparent" x="101.70214164305948" fill-opacity="0.5"></rect></g></svg></g></svg></g><defs><mask></mask></defs><mask><g id="SvgjsG3390"><svg viewBox="0 0 395.52 213.5886010543988" height="213.5886010543988" width="395.52"><g><svg viewBox="0 0 457.7610580215297 247.20000000000002" height="213.5886010543988" width="395.52"><g><svg viewBox="0 0 246.84985835694047 247.20000000000002" height="247.20000000000002" width="246.84985835694047"><g id="SvgjsG3389"><svg viewBox="0 0 246.84985835694047 247.20000000000002" height="247.20000000000002" width="246.84985835694047" id="SvgjsSvg3388"><g><svg viewBox="0 0 246.84985835694047 247.20000000000002" height="247.20000000000002" width="246.84985835694047"><g transform="matrix(1,0,0,1,0,0)"><svg width="246.84985835694047" viewBox="3.825 -35.05 35.24999999999999 35.3" height="247.20000000000002" data-palette-color="url(#49d818d3-c981-4907-985c-0e4fa9715d6c)"><path d="M33.35 0.25L33.35 0.25 9.6-30.5 9.6-5.2Q9.6-3.8 9.68-3.08 9.75-2.35 10.1-1.95L10.1-1.95Q10.5-1.6 11.25-1.33 12-1.05 13.4-0.95L13.4-0.95Q13.45-0.45 13.4 0.05L13.4 0.05Q12.3 0.05 10.98 0 9.65-0.05 8.75-0.05L8.75-0.05Q7.85-0.05 6.53 0 5.2 0.05 4.15 0.05L4.15 0.05Q4.1-0.45 4.15-0.95L4.15-0.95Q5.9-1.15 6.65-1.4 7.4-1.65 7.58-2.38 7.75-3.1 7.75-4.75L7.75-4.75 7.75-29.6Q7.75-31.55 7.55-32.43 7.35-33.3 6.53-33.6 5.7-33.9 3.85-34.1L3.85-34.1Q3.8-34.55 3.85-35.05L3.85-35.05Q5-35.05 6.28-35 7.55-34.95 8.8-34.95L8.8-34.95Q8.95-34.95 9.78-34.95 10.6-34.95 11.25-35L11.25-35 33.55-6.05 33.55-29.75Q33.55-31.1 33.5-31.88 33.45-32.65 33.05-33L33.05-33Q32.3-33.85 29.35-34.05L29.35-34.05Q29.3-34.55 29.35-35L29.35-35Q30.4-35 31.95-34.98 33.5-34.95 34.4-34.95L34.4-34.95Q35.3-34.95 36.63-34.98 37.95-35 39.05-35L39.05-35Q39.1-34.55 39.05-34.05L39.05-34.05Q37.3-33.85 36.52-33.58 35.75-33.3 35.58-32.58 35.4-31.85 35.4-30.2L35.4-30.2 35.4 0.05Q35.05 0.15 34.43 0.2 33.8 0.25 33.35 0.25Z" opacity="1" transform="matrix(1,0,0,1,0,0)" fill="black" class="wordmark-text-0" id="SvgjsPath3387"></path></svg></g></svg></g></svg></g></svg></g><g transform="matrix(1,0,0,1,305.20784555694047,47.3233937677054)"><svg viewBox="0 0 152.55321246458922 152.55321246458922" height="152.55321246458922" width="152.55321246458922"><g data-palette-color="url(#141f8780-e7f8-4aa3-8c1c-8953fed1eaec)"><rect width="41.69787807365439" height="152.55321246458922" fill="black" stroke="transparent" x="0" fill-opacity="1"></rect><rect width="41.69787807365439" height="152.55321246458922" fill="black" stroke="transparent" x="50.85107082152974" fill-opacity="0.75"></rect><rect width="41.69787807365439" height="152.55321246458922" fill="black" stroke="transparent" x="101.70214164305948" fill-opacity="0.5"></rect></g></svg></g></svg></g><defs><mask></mask></defs></svg><rect width="395.52" height="213.5886010543988" fill="black" stroke="none" visibility="hidden"></rect></g></mask></svg><rect width="395.52" height="213.5886010543988" fill="black" stroke="none" visibility="hidden"></rect></g></mask><linearGradient x1="0" x2="1" y1="0.578" y2="0.595" id="141f8780-e7f8-4aa3-8c1c-8953fed1eaec"><stop stop-color="#6ee2f5" offset="0"></stop><stop stop-color="#6454f0" offset="1"></stop></linearGradient><rect width="395.52" height="213.5886010543988" fill="url(#141f8780-e7f8-4aa3-8c1c-8953fed1eaec)" mask="url(#1eb7582e-5c14-4ec3-b6b9-7d2afee1be2c)" data-fill-palette-color="accent"></rect></svg><rect width="395.52" height="213.5886010543988" fill="none" stroke="none" visibility="hidden"></rect></g></svg></g></svg>